<svg xmlns="http://www.w3.org/2000/svg" xmlns:xlink="http://www.w3.org/1999/xlink" viewBox="0,0,256,256" width="130px" height="130px" fill-rule="nonzero"><g fill="none" fill-rule="nonzero" stroke="none" stroke-width="1" stroke-linecap="butt" stroke-linejoin="miter" stroke-miterlimit="10" stroke-dasharray="" stroke-dashoffset="0" font-family="none" font-weight="none" font-size="none" text-anchor="none" style="mix-blend-mode: normal"><g transform="scale(1.8963,1.8963)"><g id="_x31_8"><circle cx="67.5" cy="67.5" r="64" fill="#42413f"></circle><path d="M106.2,61.7c-3.3,3 -13.1,3.7 -14.1,3.7c-0.5,0 -0.8,-1 -1,-2.1c-0.2,-1.2 -0.2,-2.4 -0.2,-2.4v2.4c0.7,61.2 -0.2,-18 0.5,43.3c-0.2,4 -18.3,5.3 -22.5,5.3h-0.1c-11.4,0 -24,-3.1 -25.2,-3.7c-0.2,-0.1 -0.7,-3.7 -0.5,-42c0,-1.3 0,-2.4 0,-3c0,-0.5 0,-0.8 0,-0.8l-0.1,0.8l-0.1,0.5c-0.1,1 -0.8,1.7 -1.8,1.8c-6.3,0.2 -12.9,-4 -13.1,-4.3c-0.1,-0.1 0.1,-0.9 0.4,-2.2c1,-4.1 3.5,-12.9 4.6,-14.9c1.4,-2.7 3.7,-8 11.4,-9.9c3.5,-0.9 6.2,-2 8.1,-3c0.2,-0.1 0.3,-0.2 0.5,-0.3c0.4,-0.2 0.8,-0.5 1.2,-0.7c0.1,-0.1 0.2,-0.1 0.3,-0.1c0.5,-0.1 0.7,-0.1 1,-0.1h0.2c0.5,0 0.9,0.2 1.3,0.5c3.6,3.1 19.2,2.8 21.6,-0.5h0.9c0.3,0.3 0.8,0.6 1.3,0.9c0.3,0.1 0.5,0.3 0.8,0.4c0.3,0.2 0.7,0.3 1.1,0.5c5.1,2.3 13.7,4.9 16.6,8.2c3.3,3.7 6.1,14.2 7.2,18.7c0.1,0.5 0.2,0.8 0.3,1.2c0.1,0.6 -0.1,1.3 -0.6,1.8z" fill="#d79591"></path><path d="M91.5,107.8c-20.6,8.8 -47,0.8 -47.8,0.4c-0.3,-0.1 -0.4,-4.7 -0.5,-10.8c0.5,0.1 0.9,0.2 1.4,0.2c4.1,0.5 8.2,-0.3 12.2,-1.2c8,-1.9 16,-4.5 22.7,-9.3c5.2,-3.8 9.5,-9 11.6,-15z" fill="#c06a67"></path><path d="M81.7,31.3c-0.3,-0.1 -0.6,-0.3 -0.8,-0.4c-0.6,-0.3 -1,-0.6 -1.3,-0.9h-0.9c-2.4,3.3 -18,3.6 -21.6,0.5c-0.4,-0.3 -0.8,-0.5 -1.3,-0.5h-0.2c-0.3,0 -0.5,0 -0.7,0.1c-0.1,0 -0.2,0.1 -0.3,0.1c-0.3,0.2 -0.7,0.4 -1.2,0.7c-0.2,0.1 -0.3,0.2 -0.5,0.3c0.7,5.2 7,9.2 15,9.2c7.7,0 13.9,-3.7 14.9,-8.6c-0.4,-0.2 -0.8,-0.3 -1.1,-0.5z" fill="#8f3f3d"></path><g fill="#c06a67"><path d="M80.9,30.9c-0.1,0.6 -0.3,1.3 -0.6,1.9c-0.4,0.8 -1,1.5 -1.7,2.1c-2.4,2.1 -6.3,3.5 -10.8,3.5c-4.6,0 -8.7,-1.5 -11,-3.7c-0.7,-0.7 -1.2,-1.4 -1.6,-2.2c-0.3,-0.7 -0.5,-1.5 -0.5,-2.2v-0.1c0.3,-0.2 0.5,-0.2 0.8,-0.2h0.2c0.5,0 0.9,0.2 1.3,0.5c0.3,0.2 0.7,0.5 1.1,0.7c1,0.5 2.4,0.8 3.9,1.1c3.4,0.5 7.6,0.5 11,0c1.6,-0.3 2.9,-0.6 4,-1.1c0.7,-0.3 1.3,-0.7 1.6,-1.2h0.9c0.4,0.3 0.8,0.6 1.4,0.9z"></path></g><g><path d="M67.5,24.7c-0.2,0 -0.3,-0.1 -0.3,-0.3v-2.3c0,-0.9 0.5,-1.7 1.3,-2c1,-0.4 1.7,-1.5 1.6,-2.6c-0.1,-1.3 -1.2,-2.4 -2.5,-2.5c-0.7,0 -1.4,0.2 -2,0.7c-0.5,0.5 -0.8,1.2 -0.8,1.9c0,0.2 -0.1,0.3 -0.3,0.3c-0.2,0 -0.3,-0.1 -0.3,-0.3c0,-0.9 0.4,-1.7 1,-2.3c0.6,-0.6 1.5,-0.9 2.4,-0.9c1.6,0.1 2.9,1.4 3,3c0.1,1.3 -0.7,2.6 -1.9,3.1c-0.6,0.2 -1,0.8 -1,1.5v2.3c0.1,0.3 0,0.4 -0.2,0.4z" fill="#8f3f3d"></path><path d="M76.9,31.2c-0.4,-0.2 -0.7,-0.3 -0.9,-0.4c-2.7,-1.3 -3.3,-4.5 -5.1,-5.8c-1.2,-0.9 -2.4,-1.1 -3.1,-1.2c-0.1,0 -0.2,0 -0.3,0c-0.1,0 -0.2,0 -0.3,0c-0.8,0.1 -1.9,0.3 -3.1,1.2c-1.9,1.3 -2.4,4.5 -5.1,5.8c-0.3,0.1 -0.6,0.3 -1,0.5c-0.8,0.4 -1.7,0.8 -2.8,1.3c0.4,0.8 0.9,1.5 1.6,2.2l5.1,-2.4l5.5,-2.6l5.5,2.6l5.6,2.7c0.7,-0.7 1.3,-1.4 1.7,-2.1c-1.2,-0.9 -2.4,-1.4 -3.3,-1.8z" fill="#1e2125"></path></g><g fill="#8f3f3d"><path d="M43.2,63.2l-0.1,0.5c-0.1,1 -0.8,1.7 -1.8,1.8c-6.3,0.2 -12.9,-4 -13.1,-4.3c-0.1,-0.1 0.1,-0.9 0.4,-2.2c3.9,3.6 9.4,5.1 14.6,4.2z"></path></g><g fill="#8f3f3d"><path d="M106.2,61.7c-3.3,3 -13.1,3.7 -14.1,3.7c-0.5,0 -0.8,-1 -1,-2.1c6.5,0.8 13.2,-3.2 15.4,-4.7c0.1,0.5 0.2,0.8 0.3,1.2c0.1,0.7 -0.1,1.4 -0.6,1.9z"></path></g></g></g></g></svg>